# xmcd
#
# Track frame offsets: 
#        150
#        14438
#        33452
#        53404
#        81640
#        97713
#        114947
#        130169
#        152226
#        166978
#        181350
#        206497
#        220818
#        241946
#
# Disc length: 3406 seconds
#
# Revision: 0
# Processed by: cddbd v1.5.2PL0 Copyright (c) Steve Scherf et al.
# Submitted via: ExactAudioCopyFreeDBPlugin 1.0
#
DISCID=b00d4c0e
DTITLE=พงษ์สิทธิ์ คัมภีร์ - รวมฮิต เคียงข้าง สร้างฝัน1
DYEAR=1900
DGENRE=Thai Country
TTITLE0=ถึงเพื่อน
TTITLE1=สุดใจ
TTITLE2=อยู่คนเดียว
TTITLE3=เสมอ
TTITLE4=ผีโรงเย็น
TTITLE5=เหงา
TTITLE6=เสือ 11 ตัว
TTITLE7=ยังคอย
TTITLE8=เธอผู้เสียสละ
TTITLE9=สาวส่งออก
TTITLE10=สัตว์รักสัตว์
TTITLE11=แรงยังมี
TTITLE12=นักแสวงหา
TTITLE13=หนุ่มพเนจร
EXTD=
EXTT0=
EXTT1=
EXTT2=
EXTT3=
EXTT4=
EXTT5=
EXTT6=
EXTT7=
EXTT8=
EXTT9=
EXTT10=
EXTT11=
EXTT12=
EXTT13=
PLAYORDER=
